<svg width="180" height="180" viewBox="0 0 180 180" fill="none" xmlns="http://www.w3.org/2000/svg">
<rect width="180" height="180" fill="#FFBFFE"/>
<path d="M98.8962 120C96.5186 120 94.7569 119.341 93.6111 118.023C92.4653 116.677 91.8923 114.643 91.8923 111.922C91.8923 108.799 92.5655 105.921 93.9119 103.285C95.2869 100.65 97.5069 98.1003 100.572 95.6367C103.666 93.1732 107.776 90.7383 112.904 88.332C116.026 86.8424 118.433 85.4961 120.123 84.293C121.842 83.0898 123.045 81.901 123.732 80.7266C124.42 79.5234 124.763 78.1628 124.763 76.6445C124.763 75.3555 124.405 74.1667 123.689 73.0781C123.002 71.9609 121.999 71.0729 120.681 70.4141C119.364 69.7552 117.817 69.4258 116.041 69.4258C110.713 69.4258 106.659 72.362 103.881 78.2344C103.222 79.2943 102.377 80.0964 101.345 80.6406C100.343 81.1562 99.2686 81.4141 98.1228 81.4141C96.2322 81.4141 94.7569 80.8555 93.697 79.7383C92.6658 78.6211 92.1501 77.1029 92.1501 75.1836C92.1501 73.9805 92.3507 72.763 92.7517 71.5312C93.1814 70.2995 93.7973 68.9818 94.5994 67.5781C95.8311 65.401 97.5499 63.5104 99.7556 61.9062C101.961 60.2734 104.468 59.0273 107.275 58.168C110.082 57.2799 112.99 56.8359 115.998 56.8359C120.467 56.8359 124.362 57.6094 127.685 59.1562C131.037 60.6745 133.629 62.9232 135.463 65.9023C137.325 68.8815 138.256 72.5052 138.256 76.7734C138.256 80.2969 137.611 83.3477 136.322 85.9258C135.033 88.4753 133.128 90.724 130.607 92.6719C128.086 94.5911 124.835 96.4245 120.853 98.1719C117.387 99.8047 114.766 101.28 112.99 102.598C111.243 103.887 110.068 105.333 109.467 106.938H133.099C135.105 106.938 136.709 107.553 137.912 108.785C139.144 109.988 139.76 111.564 139.76 113.512C139.76 115.46 139.144 117.035 137.912 118.238C136.709 119.413 135.105 120 133.099 120H98.8962Z" fill="black"/>
<path d="M51.7131 120C49.6793 120 48.0321 119.355 46.7717 118.066C45.54 116.777 44.9241 115.102 44.9241 113.039V64.0977C44.9241 62.0065 45.54 60.3164 46.7717 59.0273C48.0321 57.7383 49.6793 57.0938 51.7131 57.0938C53.7756 57.0938 55.4228 57.7383 56.6545 59.0273C57.915 60.3164 58.5452 62.0065 58.5452 64.0977V106.551H82.178C84.1832 106.551 85.816 107.181 87.0764 108.441C88.3655 109.673 89.01 111.292 89.01 113.297C89.01 115.273 88.3655 116.892 87.0764 118.152C85.816 119.384 84.1832 120 82.178 120H51.7131Z" fill="black"/>
</svg>
