<svg width="180" height="180" viewBox="0 0 180 180" fill="none" xmlns="http://www.w3.org/2000/svg">
<rect width="180" height="180" fill="#8C8CFE"/>
<path d="M115.697 121.289C111.171 121.289 107.046 120.587 103.322 119.184C99.5981 117.78 96.8337 115.861 95.0291 113.426C93.3676 111.191 92.5369 108.857 92.5369 106.422C92.5369 104.56 93.0811 103.085 94.1697 101.996C95.2582 100.879 96.7192 100.32 98.5525 100.32C99.641 100.32 100.615 100.521 101.474 100.922C102.334 101.294 103.293 101.939 104.353 102.855C107.103 106.379 110.927 108.141 115.826 108.141C117.831 108.141 119.593 107.783 121.111 107.066C122.658 106.35 123.847 105.348 124.677 104.059C125.537 102.741 125.967 101.237 125.967 99.5469C125.967 96.8828 125.036 94.849 123.174 93.4453C121.312 92.013 118.576 91.2969 114.967 91.2969C114.193 91.2969 113.033 91.3828 111.486 91.5547C110.111 91.6693 109.223 91.7266 108.822 91.7266C107.247 91.7266 105.929 91.2969 104.869 90.4375C103.838 89.5495 103.322 88.4036 103.322 87C103.322 85.3958 104.239 83.806 106.072 82.2305L119.006 71.0586H99.7556C97.7504 71.0586 96.1176 70.457 94.8572 69.2539C93.5968 68.0508 92.9666 66.5039 92.9666 64.6133C92.9666 62.694 93.5968 61.1328 94.8572 59.9297C96.1462 58.7266 97.7791 58.125 99.7556 58.125H132.627C134.832 58.125 136.551 58.6693 137.783 59.7578C139.043 60.8177 139.674 62.3073 139.674 64.2266C139.674 65.2292 139.387 66.2461 138.814 67.2773C138.27 68.3086 137.511 69.2396 136.537 70.0703L122.228 82.4023C127.814 82.8034 132.14 84.5508 135.205 87.6445C138.299 90.7096 139.845 94.849 139.845 100.062C139.845 104.273 138.843 107.983 136.838 111.191C134.832 114.4 131.997 116.892 128.33 118.668C124.692 120.415 120.481 121.289 115.697 121.289Z" fill="black"/>
<path d="M53.0022 120C50.9683 120 49.3212 119.355 48.0608 118.066C46.829 116.777 46.2131 115.102 46.2131 113.039V64.0977C46.2131 62.0065 46.829 60.3164 48.0608 59.0273C49.3212 57.7383 50.9683 57.0938 53.0022 57.0938C55.0647 57.0938 56.7118 57.7383 57.9436 59.0273C59.204 60.3164 59.8342 62.0065 59.8342 64.0977V106.551H83.467C85.4722 106.551 87.1051 107.181 88.3655 108.441C89.6545 109.673 90.2991 111.292 90.2991 113.297C90.2991 115.273 89.6545 116.892 88.3655 118.152C87.1051 119.384 85.4722 120 83.467 120H53.0022Z" fill="black"/>
</svg>
