<svg width="173" height="123" viewBox="0 0 173 123" fill="none" xmlns="http://www.w3.org/2000/svg">
<path fill-rule="evenodd" clip-rule="evenodd" d="M15.2123 71.1874L43.2143 102.92L43.258 102.963C44.0346 103.85 44.8352 104.685 45.6578 105.467C51.4159 110.936 58.2544 113.789 65.5283 113.789C78.9606 113.789 87.886 103.665 88.2365 91.5243C88.6682 92.0278 89.0966 92.5012 89.5251 92.946C92.522 96.0595 95.4942 97.7807 99.437 98.9308C99.6858 99.6019 99.9569 100.247 100.248 100.867C104.612 110.163 113.49 113.745 120.176 113.745C127.789 113.745 134.702 109.713 140.74 102.92L156.535 85.0375C159.598 81.5745 163.798 75.6141 163.798 69.0837C163.798 62.0272 159.685 56.1104 155.966 51.9028L126.783 18.7684C120.938 12.1927 114.274 8.20406 106.949 7.95514C106.797 7.94998 106.645 7.9464 106.493 7.9445C106.401 7.94331 106.31 7.94275 106.219 7.94275C92.7867 7.94275 83.8613 18.2863 83.5107 29.7694H74.1915C73.8415 23.5019 71.085 17.7165 66.666 13.6405C62.7719 10.0904 57.6091 7.94275 51.5711 7.94275C43.9581 7.94275 37.0451 11.975 31.0071 18.7684L15.2123 36.6505C12.0183 40.3321 7.94922 46.8187 7.94922 53.919C7.94922 54.3627 7.96496 54.8041 7.99525 55.2425C8.44931 61.8191 12.1769 67.7359 15.2123 71.1874Z" fill="white"/>
<path fill-rule="evenodd" clip-rule="evenodd" d="M37.4133 108.355L9.24528 76.4352L9.24083 76.4302C5.6152 72.3074 0.686534 64.793 0.0648462 55.7891C0.0223692 55.1739 0 54.5501 0 53.9189C0 44.0338 5.48404 35.7376 9.20562 31.4479L9.22883 31.4212L25.0552 13.5034L25.0634 13.4943C31.9947 5.6956 40.9004 0 51.5712 0C59.591 0 66.665 2.88737 72.024 7.77306L72.0411 7.78862L72.058 7.80428C74.8251 10.3566 77.0951 13.3917 78.7789 16.743C83.5688 7.1071 93.3892 0 106.219 0C106.344 0 106.47 0.000797619 106.595 0.00239058C106.803 0.00504552 107.011 0.00991078 107.219 0.0169749C117.466 0.365186 126.019 5.94801 132.727 13.4943L132.739 13.5076L161.924 46.645C161.926 46.6463 161.927 46.6477 161.928 46.649C165.936 51.1843 171.747 58.9904 171.747 69.0835C171.747 78.6898 165.8 86.5568 162.491 90.297L146.692 108.184L146.684 108.193C139.752 115.992 130.847 121.687 120.176 121.687C111.266 121.687 99.627 117.098 93.5546 105.265C93.3463 105.177 93.1396 105.087 92.9345 104.995C88.1388 114.755 78.3476 121.732 65.5284 121.732C56.0316 121.732 47.2774 117.965 40.1807 111.224L45.6578 105.467C51.416 110.936 58.2545 113.789 65.5284 113.789C75.3561 113.789 82.7714 108.369 86.1809 100.705C87.0537 98.7417 87.6642 96.6305 87.9853 94.4256C88.1237 93.4741 88.2079 92.5059 88.2365 91.5234C88.6682 92.0277 89.0967 92.5011 89.5251 92.9459C91.4465 94.9419 93.3574 96.3652 95.5204 97.4335C96.7311 98.0316 98.0221 98.5177 99.437 98.9307C99.6858 99.6019 99.9569 100.247 100.248 100.867C104.612 110.162 113.49 113.745 120.176 113.745C127.79 113.745 134.702 109.713 140.74 102.92L156.535 85.0374C159.598 81.5744 163.798 75.614 163.798 69.0835C163.798 62.0272 159.685 56.1103 155.966 51.9027L126.783 18.7683C120.938 12.1926 114.274 8.20398 106.949 7.95506C106.797 7.9499 106.645 7.94632 106.493 7.94442C106.402 7.94323 106.311 7.94267 106.219 7.94267C92.7867 7.94267 83.8613 18.2862 83.5107 29.7693H74.1915C73.8415 23.5018 71.0851 17.7164 66.666 13.6404C62.772 10.0903 57.6091 7.94267 51.5712 7.94267C43.9581 7.94267 37.0451 11.9749 31.0072 18.7683L15.2123 36.6504C12.0183 40.332 7.94924 46.8186 7.94924 53.9189C7.94924 54.3626 7.96498 54.804 7.99526 55.2425C8.44933 61.819 12.1769 67.7358 15.2123 71.1873L43.2143 102.92L43.2581 102.963C44.0346 103.85 44.8352 104.685 45.6578 105.467L40.1807 111.224C39.2401 110.33 38.3308 109.386 37.4538 108.396L37.4133 108.355Z" fill="white"/>
<mask id="mask0_174_608" style="mask-type:luminance" maskUnits="userSpaceOnUse" x="7" y="7" width="157" height="107">
<path d="M163.754 7.94275L7.94922 7.94275L7.94922 113.701H163.754V7.94275Z" fill="white"/>
</mask>
<g mask="url(#mask0_174_608)">
<path d="M43.2143 102.876L15.2123 71.1437C11.9745 67.4621 7.94922 60.9754 7.94922 53.8752C7.94922 46.775 12.0183 40.2883 15.2123 36.6068L31.0072 18.7247C37.0451 11.9313 43.9581 7.89905 51.5711 7.89905C57.6091 7.89905 62.7719 10.0466 66.666 13.5968C71.0851 17.6728 73.8415 23.4582 74.1916 29.7257H83.5107C83.8613 18.2426 92.7867 7.89905 106.219 7.89905C113.832 7.89905 120.745 11.9313 126.783 18.7247L155.966 51.8591C159.685 56.0667 163.798 61.9835 163.798 69.0399C163.798 75.5704 159.598 81.5308 156.535 84.9938L140.74 102.876C134.702 109.669 127.79 113.701 120.176 113.701C113.045 113.701 103.419 109.625 99.437 98.8871C94.9306 97.5726 91.6929 95.5123 88.2365 91.4798C87.886 103.621 78.9606 113.745 65.5284 113.745C57.2153 113.745 49.471 110.02 43.2581 102.92L43.2143 102.876Z" fill="white"/>
</g>
<mask id="mask1_174_608" style="mask-type:luminance" maskUnits="userSpaceOnUse" x="7" y="7" width="157" height="107">
<path d="M163.754 7.94275L7.94922 7.94275L7.94922 113.701H163.754V7.94275Z" fill="white"/>
</mask>
<g mask="url(#mask1_174_608)">
<path d="M43.2143 102.876L15.2123 71.1437C11.9745 67.4621 7.94922 60.9755 7.94922 53.8752C7.94922 46.775 12.0183 40.2883 15.2123 36.6068L31.0072 18.7247C37.0451 11.9313 43.9581 7.89905 51.5711 7.89905C57.6091 7.89905 62.7719 10.0466 66.666 13.5968C71.0851 17.6728 73.8415 23.4582 74.1916 29.7257H83.5107C83.8613 18.2426 92.7867 7.89905 106.219 7.89905C113.832 7.89905 120.745 11.9313 126.783 18.7247L155.966 51.8591C159.685 56.0667 163.798 61.9835 163.798 69.0399C163.798 75.5704 159.598 81.5308 156.535 84.9938L140.74 102.876C134.702 109.669 127.79 113.701 120.176 113.701C113.045 113.701 103.419 109.625 99.437 98.8871C94.9306 97.5726 91.6929 95.5123 88.2365 91.4798C87.886 103.621 78.9606 113.745 65.5284 113.745C57.2153 113.745 49.471 110.02 43.2581 102.92L43.2143 102.876ZM20.4189 66.5855L36.2138 84.4672C41.1142 89.9898 46.2332 92.9262 51.5711 92.9262C61.2406 92.9262 67.366 85.5633 67.366 77.5426C67.366 72.5024 64.2596 70.1356 60.3655 67.4183C59.4467 66.8047 58.7904 65.6651 58.7904 64.5256C58.7904 62.6409 60.3217 61.0631 62.1595 61.0631C62.9032 61.0631 63.7345 61.3261 64.7409 61.9835C67.716 63.7805 71.6101 67.7251 73.0977 71.1437H84.7357C86.2675 67.7689 90.1173 63.7805 93.0927 61.9835C94.0554 61.3699 94.8869 61.0631 95.6746 61.0631C97.5554 61.0631 99.0435 62.6409 99.0435 64.5256C99.0435 65.7089 98.3432 66.8047 97.468 67.4183C93.5744 70.1356 90.4679 72.4585 90.4679 77.5426C90.4679 85.5633 96.549 92.9262 106.262 92.9262C111.6 92.9262 116.719 90.0334 121.62 84.4672L137.414 66.5855C139.996 63.6928 142.928 58.6964 142.928 53.9191C142.928 49.1417 139.953 44.1453 137.414 41.2526L121.62 23.3705C116.719 17.8482 111.6 14.9116 106.262 14.9116C96.5928 14.9116 90.4679 22.2748 90.4679 30.2954C90.4679 35.3358 93.5744 37.7024 97.468 40.4199C98.3869 41.0334 99.0435 42.173 99.0435 43.3125C99.0435 45.1971 97.5117 46.775 95.6746 46.775C94.9306 46.775 94.0991 46.5121 93.0927 45.8546C90.1173 44.0576 86.2238 40.113 84.7357 36.6944H73.0977C71.5663 40.0692 67.716 44.0576 64.7409 45.8546C63.7783 46.4682 62.947 46.775 62.1595 46.775C60.278 46.775 58.7904 45.1971 58.7904 43.3125C58.7904 42.1291 59.4905 41.0334 60.3655 40.4199C64.2596 37.7024 67.366 35.3795 67.366 30.2954C67.366 22.2748 61.2843 14.9116 51.5711 14.9116C46.2332 14.9116 41.1142 17.8043 36.2138 23.3705L20.4189 41.2526C17.8374 44.1453 14.906 49.1417 14.906 53.9191C14.906 58.6964 17.8812 63.6928 20.4189 66.5855ZM33.6323 34.24L40.8954 26.1317C42.4267 24.4662 44.7019 24.2032 46.1457 25.562C47.6771 26.7891 47.3708 29.112 46.1457 30.5584L38.8827 38.7982C37.4388 40.376 35.0762 40.5513 33.6323 39.2803C32.101 37.9654 32.4073 35.5987 33.6323 34.24ZM102.412 20.9162C102.893 20.697 103.463 20.6532 103.943 20.5655C106.219 20.434 107.881 21.8803 107.969 24.0279C108.056 25.6058 106.919 27.096 105.344 27.4028C104.425 27.5342 104.163 28.0164 104.031 28.8492C103.9 30.3831 102.5 31.5665 100.837 31.6103C98.7812 31.6979 97.2494 30.164 97.1619 28.0602C97.1619 24.6854 99.437 21.8803 102.412 20.8723V20.9162Z" fill="black"/>
</g>
</svg>
